<?xml version="1.0" standalone="no"?>
<!DOCTYPE svg PUBLIC "-//W3C//DTD SVG 20010904//EN"
 "http://www.w3.org/TR/2001/REC-SVG-20010904/DTD/svg10.dtd">
<svg version="1.0" xmlns="http://www.w3.org/2000/svg"
 width="2000.000000pt" height="2000.000000pt" viewBox="0 0 2000.000000 2000.000000"
 preserveAspectRatio="xMidYMid meet">
<metadata>
Created by potrace 1.14, written by Peter Selinger 2001-2017
</metadata>
<g transform="translate(0.000000,2000.000000) scale(0.100000,-0.100000)"
fill="#000000" stroke="none">
<path d="M0 10000 l0 -10000 10000 0 10000 0 0 10000 0 10000 -10000 0 -10000
0 0 -10000z m10049 8176 c91 -73 291 -275 407 -410 213 -247 475 -619 670
-951 95 -163 355 -670 424 -830 165 -379 169 -391 160 -458 -5 -34 -9 -108 -9
-164 1 -89 -4 -116 -36 -218 -20 -64 -34 -120 -31 -123 3 -3 7 -3 9 -1 6 7 57
154 60 174 6 32 18 55 27 50 4 -2 13 7 20 20 8 14 26 31 41 39 24 12 28 12 34
-3 29 -70 146 -418 203 -606 63 -205 97 -325 172 -611 l21 -81 92 -60 c109
-72 253 -153 319 -179 27 -10 48 -22 48 -25 0 -3 -32 -28 -72 -55 -105 -72
-219 -188 -253 -256 -37 -78 -33 -157 13 -249 34 -69 69 -110 149 -177 110
-91 184 -106 518 -105 532 1 1439 109 2248 269 l178 35 32 -19 c37 -23 82 -24
82 -2 0 8 4 20 8 27 4 6 1 13 -5 16 -7 2 5 7 27 11 22 4 157 36 300 71 960
236 1760 559 2283 922 50 35 92 60 92 54 0 -13 -143 -380 -248 -636 -332 -809
-634 -1429 -868 -1780 -131 -197 -112 -182 -168 -131 -124 116 -310 215 -536
286 -105 34 -141 49 -165 74 l-30 31 -130 -2 c-71 -1 -173 -5 -225 -8 -52 -4
-119 -4 -149 0 l-55 7 55 20 c30 11 76 26 103 34 26 7 53 17 60 22 6 5 25 14
41 21 50 19 -77 3 -165 -21 -285 -76 -224 -69 -690 -78 -1108 -22 -1908 -114
-2252 -260 -251 -107 -406 -308 -449 -581 -14 -93 -6 -307 16 -409 54 -245
155 -449 302 -610 l60 -65 -126 -1 c-137 -1 -221 -18 -306 -59 -84 -41 -107
-73 -183 -265 -180 -453 -325 -728 -468 -889 l-40 -44 -139 249 c-436 779
-936 1568 -1312 2068 -33 43 -34 47 -13 36 35 -18 413 -255 480 -300 105 -70
93 -75 129 55 129 470 201 986 201 1452 0 170 1 183 19 193 28 14 29 14 46
-22 l15 -33 -7 35 c-6 38 -6 39 3 86 7 35 -24 106 -53 122 -16 9 -16 11 0 27
23 22 22 25 -19 118 -27 62 -40 113 -55 212 -92 629 -307 1240 -627 1780 -101
170 -329 485 -352 485 -31 0 -291 -376 -424 -612 -276 -493 -472 -1078 -555
-1658 -33 -227 -41 -336 -48 -610 -10 -431 29 -828 122 -1265 32 -147 101
-414 110 -423 2 -2 43 23 92 55 95 64 442 282 482 303 23 12 22 9 -8 -31 -400
-535 -870 -1274 -1316 -2072 -159 -285 -133 -270 -236 -134 -72 95 -168 259
-217 369 l-20 45 40 -9 c23 -5 43 -6 47 -3 7 8 -31 37 -86 67 -24 13 -47 34
-52 48 -72 190 -195 472 -220 502 -65 77 -203 120 -388 122 -68 1 -123 3 -123
5 0 2 23 28 51 59 114 124 202 277 258 447 46 139 62 228 68 381 6 159 11 167
63 96 16 -23 35 -42 41 -42 5 0 -6 21 -26 46 -38 51 -41 60 -22 67 7 3 -3 21
-30 48 -31 33 -48 64 -68 124 -35 105 -75 173 -147 250 -114 122 -253 196
-478 254 -199 51 -551 104 -866 132 -133 12 -141 14 -140 33 1 15 12 25 36 33
l35 13 -50 -5 c-27 -2 -86 -7 -130 -10 -44 -3 -109 -10 -145 -16 -46 -7 -166
-7 -408 2 -382 13 -1140 7 -1312 -11 -393 -42 -743 -176 -944 -364 -27 -25
-50 -45 -51 -43 -143 192 -262 391 -418 696 -109 214 -117 233 -84 202 20 -19
39 -32 42 -30 7 8 -72 128 -111 169 -35 36 -100 171 -246 510 -151 351 -418
1014 -418 1040 0 5 48 -23 108 -64 437 -298 1028 -557 1795 -785 163 -48 205
-64 230 -89 18 -17 48 -37 69 -45 34 -14 36 -14 41 4 5 17 8 18 34 7 15 -7 78
-45 138 -84 107 -69 186 -114 202 -114 4 0 -12 14 -37 30 -25 16 -42 30 -39
30 3 0 39 -11 79 -25 40 -14 75 -24 77 -22 1 2 -48 27 -110 57 -69 32 -105 55
-94 57 9 3 17 11 17 20 0 12 6 14 27 8 16 -4 107 -24 203 -45 851 -187 1912
-323 2515 -323 357 -1 426 19 566 158 78 77 122 165 127 252 4 54 0 72 -24
121 -33 68 -117 155 -234 241 -87 64 -103 81 -77 81 24 0 196 92 324 174 96
60 124 83 129 104 74 313 237 853 366 1212 184 512 431 1070 473 1070 25 0
113 144 95 155 -20 12 -9 47 48 158 212 410 598 961 885 1263 146 154 348 344
366 344 2 0 34 -24 70 -54z m-5966 -1676 c408 -686 1200 -1425 2169 -2024
l108 -66 36 73 c304 607 708 1119 1244 1578 164 140 169 143 137 88 -53 -91
-161 -300 -243 -469 -378 -776 -636 -1604 -694 -2230 -6 -63 -13 -139 -16
-168 l-6 -54 -46 6 c-26 3 -96 11 -157 16 -191 18 -570 62 -575 67 -8 8 41
275 76 412 19 73 33 134 32 135 -28 18 -268 122 -382 167 -210 83 -202 78
-120 78 68 1 274 27 283 37 2 2 -25 4 -60 4 -269 3 -314 5 -338 22 l-23 16 28
5 c16 2 -25 2 -91 -1 -109 -4 -131 -1 -240 26 -259 66 -340 77 -585 76 -216 0
-228 -1 -314 -27 -102 -32 -95 -35 -126 65 -75 248 -133 615 -165 1058 -27
383 -44 1089 -28 1219 l6 54 20 -39 c11 -21 42 -77 70 -124z m11896 -67 c5
-581 -42 -1309 -110 -1708 -32 -186 -99 -456 -119 -478 -4 -4 -47 5 -96 20
-86 27 -96 27 -314 27 -192 0 -243 -3 -345 -22 -304 -58 -584 -146 -920 -290
-120 -51 -253 -111 -263 -118 -2 -1 11 -53 27 -115 31 -117 81 -372 81 -413 0
-27 39 -21 -439 -71 -184 -19 -336 -34 -338 -31 -2 2 -8 57 -14 122 -56 673
-285 1444 -675 2267 -85 178 -197 397 -272 527 -31 54 -38 58 138 -89 164
-137 480 -454 610 -611 253 -305 461 -620 616 -933 27 -53 53 -97 59 -97 5 0
45 22 87 48 882 543 1629 1208 2052 1827 87 126 172 265 202 327 9 20 20 35
24 33 4 -2 8 -102 9 -222z m315 -4363 c4 -5 -11 -4 -35 1 -24 6 -46 13 -49 16
-8 9 74 -8 84 -17z m-9764 -540 c107 -11 213 -23 234 -26 l39 -6 -7 -187 c-22
-575 79 -1206 257 -1611 l15 -35 -81 -70 c-45 -38 -179 -168 -299 -289 -120
-120 -218 -213 -218 -206 0 10 -3 10 -15 0 -12 -10 -15 -9 -16 6 -1 11 0 24 1
29 1 6 5 19 7 30 3 12 -4 7 -16 -13 -12 -18 -22 -38 -24 -45 -1 -7 -5 -14 -8
-17 -4 -3 -25 -42 -48 -87 -23 -46 -43 -83 -46 -83 -3 0 -5 9 -5 21 0 11 4 18
9 14 6 -3 9 4 8 15 -1 20 -17 29 -17 10 0 -5 -12 -26 -26 -47 -14 -21 -46 -78
-71 -128 -25 -49 -53 -99 -62 -111 -74 -96 -236 -312 -276 -369 -26 -38 -50
-72 -51 -74 -2 -1 -54 35 -116 81 -209 156 -818 585 -1140 802 -48 33 -87 61
-85 62 1 1 40 8 87 14 325 44 832 239 1165 449 249 157 369 293 420 477 23 83
30 254 16 354 -11 71 -55 248 -66 258 -6 6 -87 -20 -219 -71 -132 -51 -146
-51 -146 -7 1 16 24 52 31 46 2 -2 12 7 22 20 10 13 14 24 9 24 -12 0 -151
-96 -192 -134 -19 -17 -52 -40 -73 -51 -22 -10 -58 -35 -80 -55 -23 -20 -79
-65 -124 -99 -46 -34 -85 -67 -88 -72 -4 -5 -73 -54 -155 -109 -82 -56 -206
-143 -276 -196 -70 -52 -128 -93 -129 -92 -1 2 -14 26 -30 53 -45 80 -188 287
-314 455 -105 140 -467 597 -563 711 -21 25 -38 48 -38 51 0 3 66 7 148 7 666
5 1396 116 1829 277 54 20 105 41 113 46 24 15 495 1 710 -22z m7647 6 c78
-37 289 -103 447 -141 403 -97 974 -162 1444 -166 89 0 162 -3 162 -6 0 -4
-39 -54 -87 -112 -402 -492 -726 -924 -828 -1106 -16 -27 -30 -52 -31 -53 -1
-2 -33 21 -71 51 -296 236 -822 551 -1118 670 -109 44 -224 81 -230 75 -11
-10 -55 -186 -64 -252 -31 -218 3 -402 100 -547 195 -291 936 -650 1543 -746
l48 -8 -88 -60 c-259 -176 -714 -493 -870 -606 -34 -24 -93 -66 -130 -93 -38
-27 -111 -81 -162 -119 -51 -38 -94 -68 -96 -66 -1 2 -36 51 -76 109 -100 142
-294 389 -439 557 -65 76 -117 140 -116 141 7 7 142 -28 202 -53 124 -50 83
-23 -123 81 l-209 105 -105 108 c-101 105 -228 226 -337 322 l-52 47 23 48
c78 163 162 478 206 779 33 224 44 400 43 707 l0 296 31 6 c39 7 305 34 446
45 58 4 191 9 295 10 181 1 192 0 242 -23z m-8477 -916 c0 -13 -14 -27 -41
-40 -23 -12 -42 -20 -44 -18 -8 8 38 68 51 68 8 0 14 5 14 11 0 5 5 7 10 4 6
-3 10 -15 10 -25z m3764 -401 c233 -338 774 -891 1371 -1401 50 -42 144 -123
210 -179 95 -81 129 -117 163 -173 24 -39 51 -83 60 -98 17 -28 32 -36 32 -18
0 5 7 7 15 4 18 -7 20 7 3 25 -11 11 -10 12 3 5 29 -15 149 -151 149 -168 0
-12 35 -69 77 -125 2 -3 8 0 14 6 14 14 66 -47 234 -272 254 -341 412 -606
498 -835 73 -196 149 -497 183 -723 11 -70 22 -117 29 -117 6 0 49 14 95 31
69 25 93 29 132 24 32 -5 48 -3 48 4 0 7 23 11 58 12 31 0 66 4 77 9 18 7 17
8 -10 15 -82 19 -83 17 75 84 125 53 153 68 162 90 15 38 3 785 -16 991 -18
194 -49 423 -76 570 -11 58 -20 111 -20 117 0 13 50 -39 112 -117 53 -66 163
-250 218 -366 116 -243 215 -525 295 -841 14 -53 27 -98 29 -101 3 -2 39 14
81 37 41 23 80 39 85 36 6 -4 13 0 16 9 3 8 12 17 20 20 12 5 12 2 2 -17 -7
-12 -13 -39 -14 -59 l-2 -37 22 27 c13 15 30 40 38 55 8 16 25 34 38 40 12 7
31 27 40 45 13 24 58 58 166 127 213 135 202 123 219 230 39 247 99 750 111
930 4 55 9 104 12 109 11 19 139 -426 198 -688 20 -89 37 -163 39 -165 5 -4
191 149 324 267 144 128 506 495 611 619 47 56 87 99 89 97 8 -8 -257 -527
-367 -719 -138 -241 -329 -545 -471 -749 -98 -139 -111 -163 -111 -200 0 -144
-225 -777 -403 -1131 -108 -217 -272 -476 -406 -642 -77 -96 -250 -277 -258
-270 -2 3 2 17 8 33 6 16 36 101 65 189 38 110 61 165 77 177 18 14 19 20 8
27 -11 7 -4 40 37 177 77 260 172 611 172 638 0 6 -53 -41 -117 -105 -137
-135 -287 -269 -396 -354 l-77 -60 -47 -145 c-160 -503 -382 -985 -645 -1403
-45 -70 -82 -126 -84 -124 -2 1 6 37 17 79 10 42 39 172 64 288 24 117 51 223
60 236 8 13 15 30 15 37 0 8 14 33 31 57 17 23 25 39 18 35 -8 -5 -10 -4 -5 3
4 7 14 12 23 12 9 0 13 3 10 7 -4 3 1 11 10 18 9 7 18 23 20 36 3 20 -7 14
-57 -36 -34 -33 -59 -53 -56 -45 7 18 82 461 91 537 l7 51 -144 -73 c-137 -71
-328 -153 -433 -189 l-50 -16 -38 -108 c-82 -228 -221 -478 -358 -642 -29 -36
-116 -129 -191 -208 -149 -153 -215 -237 -304 -383 -68 -113 -204 -382 -269
-534 -26 -60 -49 -112 -52 -115 -3 -3 -3 69 0 160 13 351 111 814 263 1238 31
86 68 191 83 233 22 65 32 80 64 100 21 13 52 42 69 63 31 39 28 40 -24 4 -16
-11 -44 -18 -70 -18 -35 0 -58 -9 -104 -38 -32 -20 -85 -53 -116 -72 -32 -19
-58 -37 -58 -41 0 -3 -49 -21 -109 -39 l-109 -33 -133 -361 c-156 -425 -237
-668 -325 -976 -35 -123 -68 -228 -73 -233 -5 -5 -12 4 -16 20 -7 26 -8 26
-15 8 -5 -11 -9 -45 -9 -75 -1 -30 -7 -66 -14 -80 -17 -33 -20 -92 -6 -101 9
-5 7 -25 -6 -78 -21 -86 -37 -90 -76 -17 -25 45 -27 47 -33 23 -3 -13 3 -58
13 -98 32 -130 34 -204 7 -351 -28 -151 -69 -431 -87 -590 -7 -60 -16 -108
-19 -108 -14 0 -71 494 -89 770 -19 288 -23 582 -12 820 18 372 41 561 121
995 22 121 42 227 43 235 1 8 -4 14 -11 12 -7 -1 -74 -10 -148 -20 -112 -14
-136 -14 -143 -3 -7 11 -13 11 -32 1 -30 -16 -159 -7 -339 24 -74 13 -136 23
-138 21 -1 -1 5 -64 13 -141 20 -189 35 -467 35 -638 l-1 -141 -23 90 c-30
114 -107 294 -193 449 -112 202 -274 480 -286 492 -7 6 -93 34 -192 62 -99 29
-243 72 -320 96 -77 24 -141 43 -142 42 -2 -1 27 -81 63 -177 119 -317 197
-594 253 -894 51 -277 56 -337 56 -685 0 -437 -18 -631 -39 -432 -30 270 -195
746 -370 1061 -72 129 -148 242 -266 391 -219 277 -412 620 -510 907 l-42 122
-52 17 c-90 29 -327 133 -445 195 l-113 59 7 -57 c23 -192 122 -725 196 -1055
21 -98 39 -184 39 -190 0 -7 -28 30 -62 82 -257 399 -500 924 -661 1430 l-47
145 -62 50 c-121 95 -274 231 -400 354 -71 68 -128 118 -128 110 0 -57 230
-839 329 -1119 22 -63 39 -115 37 -117 -6 -7 -181 175 -249 260 -70 87 -196
266 -247 351 -22 37 -22 38 -2 27 11 -6 32 -15 46 -21 l26 -10 -15 29 c-16 33
-44 57 -98 86 -33 18 -48 40 -132 210 -51 104 -124 264 -160 355 -120 297
-235 669 -235 757 0 39 -10 58 -94 176 -160 226 -391 596 -546 872 -76 136
-315 614 -309 619 2 2 47 -46 99 -107 202 -236 500 -527 776 -759 78 -65 144
-118 147 -118 3 0 11 26 17 58 27 132 84 358 130 517 71 243 88 292 93 275 3
-8 10 -78 16 -155 16 -207 93 -833 117 -948 4 -19 23 -39 65 -68 32 -22 59
-43 59 -47 0 -12 77 -87 105 -102 22 -12 28 -12 35 -1 6 11 16 9 46 -9 82 -50
281 -231 429 -390 33 -36 76 -76 95 -89 25 -17 17 -5 -31 45 -128 133 -178
223 -121 217 16 -2 23 4 28 25 22 102 92 343 139 481 94 277 198 505 313 686
71 111 177 243 188 233 3 -3 -4 -55 -15 -114 -36 -191 -60 -383 -76 -604 -26
-365 -30 -397 -59 -475 -8 -22 -17 -58 -21 -79 -7 -34 -6 -38 9 -33 15 6 15 3
1 -31 -10 -25 -11 -32 -2 -20 9 12 18 14 30 7 15 -9 17 -29 17 -159 0 -82 4
-160 9 -173 8 -19 44 -38 193 -100 184 -76 429 -167 448 -167 5 0 10 13 10 29
0 46 57 347 89 468 65 246 76 271 149 355 43 50 67 86 67 102 0 13 -3 22 -7
19 -22 -13 -3 18 32 52 22 22 38 45 36 52 -3 6 11 33 31 60 l37 48 -58 -54
c-31 -29 -60 -51 -63 -47 -3 3 16 43 42 88 133 231 406 609 475 659 28 21 39
34 31 38 -14 9 30 66 185 241 131 148 192 206 399 381 237 200 459 395 597
521 64 60 120 108 126 108 5 0 44 -39 87 -86 l79 -86 -75 -72 c-253 -243 -546
-592 -761 -906 -340 -497 -555 -968 -652 -1426 -55 -265 -101 -611 -94 -724
l3 -53 80 -19 c112 -27 457 -98 475 -98 10 0 20 23 33 74 58 243 206 601 344
833 l49 81 12 -282 c10 -244 48 -775 55 -782 7 -7 305 -35 472 -44 197 -11
265 -20 400 -51 94 -22 170 -23 240 -5 l50 14 -53 7 c-110 16 -62 40 108 55
68 6 129 15 134 20 14 14 0 595 -19 765 -40 377 -119 737 -201 923 -13 30 -22
57 -20 59 2 3 40 -40 83 -94 352 -442 599 -958 687 -1435 13 -71 27 -132 29
-135 6 -5 290 51 457 90 l95 23 -2 99 c-5 254 -74 659 -160 945 -164 548 -546
1184 -1072 1785 -24 27 -127 136 -230 240 -312 319 -520 572 -865 1054 -91
128 -114 166 -105 177 12 15 99 74 108 74 3 0 28 -32 55 -71z m1137 40 c26
-16 52 -36 58 -43 11 -12 -69 -130 -304 -449 l-80 -107 -64 64 -64 65 36 43
c201 237 255 304 305 375 31 45 59 82 61 83 2 0 26 -14 52 -31z m-4188 -1234
c-3 -9 -8 -14 -10 -11 -3 3 -2 9 2 15 9 16 15 13 8 -4z m384 -2169 c-14 -43
-16 -43 -14 -4 1 19 7 35 13 35 9 0 9 -9 1 -31z m-577 -221 l25 -30 -27 24
c-16 14 -28 29 -28 34 0 6 1 8 3 6 1 -2 13 -17 27 -34z"/>
<path d="M9784 16268 c-540 -550 -933 -1152 -1215 -1866 -403 -1016 -532
-2242 -349 -3312 45 -262 140 -616 190 -709 l12 -23 41 40 c54 51 199 168 276
222 34 24 61 44 61 45 0 2 -16 60 -35 129 -65 238 -112 514 -142 829 -19 211
-22 749 -4 952 32 368 81 696 110 735 10 14 17 37 17 52 -1 14 2 24 6 22 3 -2
9 0 13 6 3 5 1 10 -6 10 -7 0 -9 3 -5 8 4 4 12 7 17 7 5 0 10 5 11 10 1 6 6
15 12 21 6 7 25 29 42 50 18 22 48 57 68 78 48 53 36 60 -16 10 -23 -21 -36
-31 -29 -21 8 9 12 20 9 23 -3 2 -24 -21 -48 -52 -23 -30 -44 -53 -47 -50 -3
3 9 23 27 46 17 22 27 40 22 40 -6 0 -22 -15 -37 -32 -28 -35 -28 -36 -9 33 2
9 16 21 29 27 15 7 25 20 25 33 0 18 -2 19 -15 9 -9 -7 -18 -11 -20 -8 -11 11
107 401 180 598 210 564 492 1044 790 1342 82 83 197 178 215 178 34 0 271
-224 375 -355 140 -176 307 -445 420 -676 55 -112 76 -185 90 -304 9 -77 14
-95 27 -95 6 0 20 -8 30 -17 14 -13 21 -14 27 -5 4 7 14 -7 25 -38 20 -55 16
-92 -4 -47 -16 33 -34 36 -24 5 8 -26 22 -38 45 -38 20 0 104 -258 184 -565
151 -575 214 -1333 164 -1950 -28 -342 -95 -720 -174 -980 -5 -16 6 -29 55
-64 85 -59 215 -165 272 -219 l47 -46 26 58 c35 78 91 272 131 449 18 82 37
154 43 160 26 32 78 136 69 139 -5 2 15 36 46 76 31 40 52 72 48 72 -4 0 -2 4
4 8 10 7 61 79 79 112 19 35 -75 -85 -184 -236 -18 -25 -36 -42 -40 -37 -13
14 21 233 36 233 7 0 13 4 13 9 0 6 21 13 46 17 44 6 73 33 46 42 -17 5 -15
22 2 22 8 0 17 4 20 9 3 4 -24 1 -59 -7 -36 -9 -67 -14 -69 -11 -2 2 1 45 7
94 5 50 11 277 11 505 0 325 -3 454 -17 595 -70 711 -222 1317 -480 1918 -30
70 -53 136 -50 145 2 10 -11 37 -30 62 -18 25 -68 109 -110 187 -204 379 -420
696 -687 1008 -104 121 -447 475 -461 475 -3 0 -91 -87 -195 -192z"/>
<path d="M11607 14953 c-9 -32 -18 -67 -22 -78 -3 -11 3 -1 14 22 25 53 42
113 32 113 -4 0 -15 -26 -24 -57z"/>
<path d="M11290 8326 c0 -2 7 -9 15 -16 13 -11 14 -10 9 4 -5 14 -24 23 -24
12z"/>
<path d="M11420 8031 c0 -6 4 -13 10 -16 6 -3 7 1 4 9 -7 18 -14 21 -14 7z"/>
<path d="M13071 4576 c-36 -37 -41 -47 -32 -62 6 -11 11 -16 12 -11 1 4 2 10
3 15 1 4 16 28 34 55 18 26 31 47 30 47 -2 0 -23 -20 -47 -44z"/>
<path d="M10341 2454 c0 -11 3 -14 6 -6 3 7 2 16 -1 19 -3 4 -6 -2 -5 -13z"/>
</g>
</svg>
